<svg xmlns="http://www.w3.org/2000/svg" viewBox="0 0 1700 1560" width="1700" height="1560"><defs><marker id="arr-3c4043" viewBox="0 0 10 10" refX="9" refY="5" markerWidth="8" markerHeight="8" orient="auto-start-reverse"><path d="M0 1 L10 5 L0 9 z" fill="#3c4043"/></marker><marker id="arr-d93025" viewBox="0 0 10 10" refX="9" refY="5" markerWidth="8" markerHeight="8" orient="auto-start-reverse"><path d="M0 1 L10 5 L0 9 z" fill="#d93025"/></marker><marker id="arr-8e44ad" viewBox="0 0 10 10" refX="9" refY="5" markerWidth="8" markerHeight="8" orient="auto-start-reverse"><path d="M0 1 L10 5 L0 9 z" fill="#8e44ad"/></marker><marker id="arr-1e8e3e" viewBox="0 0 10 10" refX="9" refY="5" markerWidth="8" markerHeight="8" orient="auto-start-reverse"><path d="M0 1 L10 5 L0 9 z" fill="#1e8e3e"/></marker></defs><rect width="1700" height="1560" fill="#ffffff"/><text x="34" y="44" font-size="24" font-weight="800" fill="#202124" font-family="Inter, 'Segoe UI', Roboto, Helvetica, Arial, sans-serif">Hub-and-Spoke Network Landing Zone on Google Cloud</text><text x="34" y="66" font-size="13.5" fill="#5f6368" font-family="Inter, 'Segoe UI', Roboto, Helvetica, Arial, sans-serif">Network Connectivity Center (star) · network firewall policies · private DNS peering · Cloud NAT · IAP · flow logs · Terraform</text><rect x="190" y="100" width="1480" height="700" rx="10" fill="#f8faff" stroke="#1a73e8" stroke-width="1.6" /><rect x="204" y="89" width="560" height="22" rx="4" fill="#fff"/><text x="214" y="104.5" font-size="12.5" font-weight="700" fill="#1a73e8" font-family="Inter, 'Segoe UI', Roboto, Helvetica, Arial, sans-serif">Google Cloud project  ·  region europe-west1  ·  three custom-mode VPCs</text><rect x="210" y="290" width="440" height="420" rx="10" fill="#faf5fd" stroke="#8e44ad" stroke-width="1.6" stroke-dasharray="7 5"/><rect x="224" y="279" width="330" height="22" rx="4" fill="#fff"/><text x="234" y="294.5" font-size="12.5" font-weight="700" fill="#8e44ad" font-family="Inter, 'Segoe UI', Roboto, Helvetica, Arial, sans-serif">VPC lz-prod  ·  10.10.0.0/24  ·  edge</text><rect x="710" y="290" width="440" height="420" rx="10" fill="#faf5fd" stroke="#8e44ad" stroke-width="1.6" stroke-dasharray="7 5"/><rect x="724" y="279" width="340" height="22" rx="4" fill="#fff"/><text x="734" y="294.5" font-size="12.5" font-weight="700" fill="#8e44ad" font-family="Inter, 'Segoe UI', Roboto, Helvetica, Arial, sans-serif">VPC lz-hub  ·  10.0.0.0/24  ·  center</text><rect x="1210" y="290" width="440" height="420" rx="10" fill="#faf5fd" stroke="#8e44ad" stroke-width="1.6" stroke-dasharray="7 5"/><rect x="1224" y="279" width="320" height="22" rx="4" fill="#fff"/><text x="1234" y="294.5" font-size="12.5" font-weight="700" fill="#8e44ad" font-family="Inter, 'Segoe UI', Roboto, Helvetica, Arial, sans-serif">VPC lz-dev  ·  10.20.0.0/24  ·  edge</text><rect x="190" y="850" width="1480" height="210" rx="10" fill="#f6fcf8" stroke="#1e8e3e" stroke-width="1.2"/><text x="204" y="870" font-size="12.5" font-weight="700" fill="#1e8e3e" font-family="Inter, 'Segoe UI', Roboto, Helvetica, Arial, sans-serif">OBSERVABILITY  ·  every layer leaves evidence</text><rect x="190" y="1080" width="1480" height="130" rx="10" fill="#fff8f7" stroke="#d93025" stroke-width="1.2"/><text x="204" y="1100" font-size="12.5" font-weight="700" fill="#d93025" font-family="Inter, 'Segoe UI', Roboto, Helvetica, Arial, sans-serif">GOVERNANCE  ·  preventive controls</text><rect x="42.0" y="223.0" width="60" height="60" rx="12" fill="#000" opacity="0.10"/><rect x="40.0" y="220.0" width="60" height="60" rx="12" fill="#202124"/><circle cx="70" cy="244" r="6" fill="none" stroke="#fff" stroke-width="2.6" stroke-linecap="round" stroke-linejoin="round"/><path d="M58 263 q0 -11 12 -11 q12 0 12 11" fill="none" stroke="#fff" stroke-width="2.6" stroke-linecap="round" stroke-linejoin="round"/><text x="70" y="295.0" text-anchor="middle" font-size="12.5" font-weight="600" fill="#202124" font-family="Inter, 'Segoe UI', Roboto, Helvetica, Arial, sans-serif">Operator</text><text x="70" y="308.0" text-anchor="middle" font-size="10.5" fill="#5f6368" font-family="Inter, 'Segoe UI', Roboto, Helvetica, Arial, sans-serif">gcloud ssh</text><text x="70" y="320.0" text-anchor="middle" font-size="10.5" fill="#5f6368" font-family="Inter, 'Segoe UI', Roboto, Helvetica, Arial, sans-serif">--tunnel-through-iap</text><rect x="42.0" y="403.0" width="60" height="60" rx="12" fill="#000" opacity="0.10"/><rect x="40.0" y="400.0" width="60" height="60" rx="12" fill="#D93025"/><circle cx="64" cy="430" r="5.5" fill="none" stroke="#fff" stroke-width="2.6" stroke-linecap="round" stroke-linejoin="round"/><path d="M70 430 h14 M79 430 v5 M84 430 v4" fill="none" stroke="#fff" stroke-width="2.6" stroke-linecap="round" stroke-linejoin="round"/><text x="70" y="475.0" text-anchor="middle" font-size="12.5" font-weight="600" fill="#202124" font-family="Inter, 'Segoe UI', Roboto, Helvetica, Arial, sans-serif">Identity-Aware</text><text x="70" y="489.0" text-anchor="middle" font-size="12.5" font-weight="600" fill="#202124" font-family="Inter, 'Segoe UI', Roboto, Helvetica, Arial, sans-serif">Proxy</text><text x="70" y="502.0" text-anchor="middle" font-size="10.5" fill="#5f6368" font-family="Inter, 'Segoe UI', Roboto, Helvetica, Arial, sans-serif">OS Login · IAM</text><text x="70" y="514.0" text-anchor="middle" font-size="10.5" fill="#5f6368" font-family="Inter, 'Segoe UI', Roboto, Helvetica, Arial, sans-serif">no bastion, no keys</text><path d="M70.0 278.0 L70.0 402.0" fill="none" stroke="#3c4043" stroke-width="2"  marker-end="url(#arr-3c4043)"/><rect x="902.0" y="163.0" width="60" height="60" rx="12" fill="#000" opacity="0.10"/><rect x="900.0" y="160.0" width="60" height="60" rx="12" fill="#8E44AD"/><circle cx="930" cy="190" r="12" fill="none" stroke="#fff" stroke-width="2.6" stroke-linecap="round" stroke-linejoin="round"/><ellipse cx="930" cy="190" rx="5" ry="12" fill="none" stroke="#fff" stroke-width="2.6" stroke-linecap="round" stroke-linejoin="round"/><path d="M918 190 h24" fill="none" stroke="#fff" stroke-width="2.6" stroke-linecap="round" stroke-linejoin="round"/><text x="930" y="235.0" text-anchor="middle" font-size="12.5" font-weight="600" fill="#202124" font-family="Inter, 'Segoe UI', Roboto, Helvetica, Arial, sans-serif"></text><text x="970" y="150" text-anchor="start" font-size="12.5" font-weight="600" fill="#202124" font-family="Inter, 'Segoe UI', Roboto, Helvetica, Arial, sans-serif">Network Connectivity Center hub</text><text x="970" y="166" text-anchor="start" font-size="11" font-weight="400" fill="#5f6368" font-family="Inter, 'Segoe UI', Roboto, Helvetica, Arial, sans-serif">preset topology STAR · center + edge groups</text><rect x="302.0" y="383.0" width="60" height="60" rx="12" fill="#000" opacity="0.10"/><rect x="300.0" y="380.0" width="60" height="60" rx="12" fill="#4285F4"/><path d="M330 398 l11 6 v12 l-11 6 l-11 -6 v-12 z M319 404 l11 6 l11 -6 M330 410 v12" fill="none" stroke="#fff" stroke-width="2.6" stroke-linecap="round" stroke-linejoin="round"/><text x="330" y="455.0" text-anchor="middle" font-size="12.5" font-weight="600" fill="#202124" font-family="Inter, 'Segoe UI', Roboto, Helvetica, Arial, sans-serif">lz-prod-vm</text><text x="330" y="468.0" text-anchor="middle" font-size="10.5" fill="#5f6368" font-family="Inter, 'Segoe UI', Roboto, Helvetica, Arial, sans-serif">e2-micro · app workload</text><text x="330" y="480.0" text-anchor="middle" font-size="10.5" fill="#5f6368" font-family="Inter, 'Segoe UI', Roboto, Helvetica, Arial, sans-serif">no external IP · Shielded</text><rect x="502.0" y="383.0" width="60" height="60" rx="12" fill="#000" opacity="0.10"/><rect x="500.0" y="380.0" width="60" height="60" rx="12" fill="#D93025"/><rect x="517" y="399" width="26" height="22" fill="none" stroke="#fff" stroke-width="2.6" stroke-linecap="round" stroke-linejoin="round"/><path d="M517 407 h26 M517 414 h26 M526 399 v8 M535 407 v7 M526 414 v7" fill="none" stroke="#fff" stroke-width="2.6" stroke-linecap="round" stroke-linejoin="round"/><text x="530" y="455.0" text-anchor="middle" font-size="12.5" font-weight="600" fill="#202124" font-family="Inter, 'Segoe UI', Roboto, Helvetica, Arial, sans-serif">Firewall policy</text><text x="530" y="468.0" text-anchor="middle" font-size="10.5" fill="#5f6368" font-family="Inter, 'Segoe UI', Roboto, Helvetica, Arial, sans-serif">IAP ssh · approved</text><text x="530" y="480.0" text-anchor="middle" font-size="10.5" fill="#5f6368" font-family="Inter, 'Segoe UI', Roboto, Helvetica, Arial, sans-serif">CIDRs · deny + log</text><rect x="502.0" y="558.0" width="60" height="60" rx="12" fill="#000" opacity="0.10"/><rect x="500.0" y="555.0" width="60" height="60" rx="12" fill="#8E44AD"/><circle cx="530" cy="585" r="12" fill="none" stroke="#fff" stroke-width="2.6" stroke-linecap="round" stroke-linejoin="round"/><path d="M523 582 h14 l-4 -4 M537 589 h-14 l4 4" fill="none" stroke="#fff" stroke-width="2.6" stroke-linecap="round" stroke-linejoin="round"/><text x="530" y="630.0" text-anchor="middle" font-size="12.5" font-weight="600" fill="#202124" font-family="Inter, 'Segoe UI', Roboto, Helvetica, Arial, sans-serif">Cloud NAT</text><text x="530" y="643.0" text-anchor="middle" font-size="10.5" fill="#5f6368" font-family="Inter, 'Segoe UI', Roboto, Helvetica, Arial, sans-serif">egress only</text><text x="530" y="655.0" text-anchor="middle" font-size="10.5" fill="#5f6368" font-family="Inter, 'Segoe UI', Roboto, Helvetica, Arial, sans-serif">no inbound</text><rect x="802.0" y="383.0" width="60" height="60" rx="12" fill="#000" opacity="0.10"/><rect x="800.0" y="380.0" width="60" height="60" rx="12" fill="#4285F4"/><path d="M830 398 l11 6 v12 l-11 6 l-11 -6 v-12 z M819 404 l11 6 l11 -6 M830 410 v12" fill="none" stroke="#fff" stroke-width="2.6" stroke-linecap="round" stroke-linejoin="round"/><text x="830" y="455.0" text-anchor="middle" font-size="12.5" font-weight="600" fill="#202124" font-family="Inter, 'Segoe UI', Roboto, Helvetica, Arial, sans-serif">lz-hub-vm</text><text x="830" y="468.0" text-anchor="middle" font-size="10.5" fill="#5f6368" font-family="Inter, 'Segoe UI', Roboto, Helvetica, Arial, sans-serif">e2-micro · shared services</text><text x="830" y="480.0" text-anchor="middle" font-size="10.5" fill="#5f6368" font-family="Inter, 'Segoe UI', Roboto, Helvetica, Arial, sans-serif">no external IP · Shielded</text><rect x="1002.0" y="383.0" width="60" height="60" rx="12" fill="#000" opacity="0.10"/><rect x="1000.0" y="380.0" width="60" height="60" rx="12" fill="#D93025"/><rect x="1017" y="399" width="26" height="22" fill="none" stroke="#fff" stroke-width="2.6" stroke-linecap="round" stroke-linejoin="round"/><path d="M1017 407 h26 M1017 414 h26 M1026 399 v8 M1035 407 v7 M1026 414 v7" fill="none" stroke="#fff" stroke-width="2.6" stroke-linecap="round" stroke-linejoin="round"/><text x="1030" y="455.0" text-anchor="middle" font-size="12.5" font-weight="600" fill="#202124" font-family="Inter, 'Segoe UI', Roboto, Helvetica, Arial, sans-serif">Firewall policy</text><text x="1030" y="468.0" text-anchor="middle" font-size="10.5" fill="#5f6368" font-family="Inter, 'Segoe UI', Roboto, Helvetica, Arial, sans-serif">IAP ssh · approved</text><text x="1030" y="480.0" text-anchor="middle" font-size="10.5" fill="#5f6368" font-family="Inter, 'Segoe UI', Roboto, Helvetica, Arial, sans-serif">CIDRs · deny + log</text><rect x="1002.0" y="558.0" width="60" height="60" rx="12" fill="#000" opacity="0.10"/><rect x="1000.0" y="555.0" width="60" height="60" rx="12" fill="#8E44AD"/><circle cx="1030" cy="585" r="12" fill="none" stroke="#fff" stroke-width="2.6" stroke-linecap="round" stroke-linejoin="round"/><path d="M1023 582 h14 l-4 -4 M1037 589 h-14 l4 4" fill="none" stroke="#fff" stroke-width="2.6" stroke-linecap="round" stroke-linejoin="round"/><text x="1030" y="630.0" text-anchor="middle" font-size="12.5" font-weight="600" fill="#202124" font-family="Inter, 'Segoe UI', Roboto, Helvetica, Arial, sans-serif">Cloud NAT</text><text x="1030" y="643.0" text-anchor="middle" font-size="10.5" fill="#5f6368" font-family="Inter, 'Segoe UI', Roboto, Helvetica, Arial, sans-serif">egress only</text><text x="1030" y="655.0" text-anchor="middle" font-size="10.5" fill="#5f6368" font-family="Inter, 'Segoe UI', Roboto, Helvetica, Arial, sans-serif">no inbound</text><rect x="1302.0" y="383.0" width="60" height="60" rx="12" fill="#000" opacity="0.10"/><rect x="1300.0" y="380.0" width="60" height="60" rx="12" fill="#4285F4"/><path d="M1330 398 l11 6 v12 l-11 6 l-11 -6 v-12 z M1319 404 l11 6 l11 -6 M1330 410 v12" fill="none" stroke="#fff" stroke-width="2.6" stroke-linecap="round" stroke-linejoin="round"/><text x="1330" y="455.0" text-anchor="middle" font-size="12.5" font-weight="600" fill="#202124" font-family="Inter, 'Segoe UI', Roboto, Helvetica, Arial, sans-serif">lz-dev-vm</text><text x="1330" y="468.0" text-anchor="middle" font-size="10.5" fill="#5f6368" font-family="Inter, 'Segoe UI', Roboto, Helvetica, Arial, sans-serif">e2-micro · app workload</text><text x="1330" y="480.0" text-anchor="middle" font-size="10.5" fill="#5f6368" font-family="Inter, 'Segoe UI', Roboto, Helvetica, Arial, sans-serif">no external IP · Shielded</text><rect x="1502.0" y="383.0" width="60" height="60" rx="12" fill="#000" opacity="0.10"/><rect x="1500.0" y="380.0" width="60" height="60" rx="12" fill="#D93025"/><rect x="1517" y="399" width="26" height="22" fill="none" stroke="#fff" stroke-width="2.6" stroke-linecap="round" stroke-linejoin="round"/><path d="M1517 407 h26 M1517 414 h26 M1526 399 v8 M1535 407 v7 M1526 414 v7" fill="none" stroke="#fff" stroke-width="2.6" stroke-linecap="round" stroke-linejoin="round"/><text x="1530" y="455.0" text-anchor="middle" font-size="12.5" font-weight="600" fill="#202124" font-family="Inter, 'Segoe UI', Roboto, Helvetica, Arial, sans-serif">Firewall policy</text><text x="1530" y="468.0" text-anchor="middle" font-size="10.5" fill="#5f6368" font-family="Inter, 'Segoe UI', Roboto, Helvetica, Arial, sans-serif">IAP ssh · approved</text><text x="1530" y="480.0" text-anchor="middle" font-size="10.5" fill="#5f6368" font-family="Inter, 'Segoe UI', Roboto, Helvetica, Arial, sans-serif">CIDRs · deny + log</text><rect x="1502.0" y="558.0" width="60" height="60" rx="12" fill="#000" opacity="0.10"/><rect x="1500.0" y="555.0" width="60" height="60" rx="12" fill="#8E44AD"/><circle cx="1530" cy="585" r="12" fill="none" stroke="#fff" stroke-width="2.6" stroke-linecap="round" stroke-linejoin="round"/><path d="M1523 582 h14 l-4 -4 M1537 589 h-14 l4 4" fill="none" stroke="#fff" stroke-width="2.6" stroke-linecap="round" stroke-linejoin="round"/><text x="1530" y="630.0" text-anchor="middle" font-size="12.5" font-weight="600" fill="#202124" font-family="Inter, 'Segoe UI', Roboto, Helvetica, Arial, sans-serif">Cloud NAT</text><text x="1530" y="643.0" text-anchor="middle" font-size="10.5" fill="#5f6368" font-family="Inter, 'Segoe UI', Roboto, Helvetica, Arial, sans-serif">egress only</text><text x="1530" y="655.0" text-anchor="middle" font-size="10.5" fill="#5f6368" font-family="Inter, 'Segoe UI', Roboto, Helvetica, Arial, sans-serif">no inbound</text><rect x="802.0" y="558.0" width="60" height="60" rx="12" fill="#000" opacity="0.10"/><rect x="800.0" y="555.0" width="60" height="60" rx="12" fill="#8E44AD"/><circle cx="830" cy="585" r="12" fill="none" stroke="#fff" stroke-width="2.6" stroke-linecap="round" stroke-linejoin="round"/><path d="M824 580 h12 M824 586 h12 M824 592 h8" fill="none" stroke="#fff" stroke-width="2.6" stroke-linecap="round" stroke-linejoin="round"/><text x="830" y="630.0" text-anchor="middle" font-size="12.5" font-weight="600" fill="#202124" font-family="Inter, 'Segoe UI', Roboto, Helvetica, Arial, sans-serif">Private zone</text><text x="830" y="643.0" text-anchor="middle" font-size="10.5" fill="#5f6368" font-family="Inter, 'Segoe UI', Roboto, Helvetica, Arial, sans-serif">corp.internal</text><text x="830" y="655.0" text-anchor="middle" font-size="10.5" fill="#5f6368" font-family="Inter, 'Segoe UI', Roboto, Helvetica, Arial, sans-serif">shared · prod-app · dev-app</text><rect x="302.0" y="558.0" width="60" height="60" rx="12" fill="#000" opacity="0.10"/><rect x="300.0" y="555.0" width="60" height="60" rx="12" fill="#8E44AD"/><circle cx="330" cy="585" r="12" fill="none" stroke="#fff" stroke-width="2.6" stroke-linecap="round" stroke-linejoin="round"/><path d="M324 580 h12 M324 586 h12 M324 592 h8" fill="none" stroke="#fff" stroke-width="2.6" stroke-linecap="round" stroke-linejoin="round"/><text x="330" y="630.0" text-anchor="middle" font-size="12.5" font-weight="600" fill="#202124" font-family="Inter, 'Segoe UI', Roboto, Helvetica, Arial, sans-serif">DNS peering</text><text x="330" y="643.0" text-anchor="middle" font-size="10.5" fill="#5f6368" font-family="Inter, 'Segoe UI', Roboto, Helvetica, Arial, sans-serif">corp.internal → hub</text><rect x="1302.0" y="558.0" width="60" height="60" rx="12" fill="#000" opacity="0.10"/><rect x="1300.0" y="555.0" width="60" height="60" rx="12" fill="#8E44AD"/><circle cx="1330" cy="585" r="12" fill="none" stroke="#fff" stroke-width="2.6" stroke-linecap="round" stroke-linejoin="round"/><path d="M1324 580 h12 M1324 586 h12 M1324 592 h8" fill="none" stroke="#fff" stroke-width="2.6" stroke-linecap="round" stroke-linejoin="round"/><text x="1330" y="630.0" text-anchor="middle" font-size="12.5" font-weight="600" fill="#202124" font-family="Inter, 'Segoe UI', Roboto, Helvetica, Arial, sans-serif">DNS peering</text><text x="1330" y="643.0" text-anchor="middle" font-size="10.5" fill="#5f6368" font-family="Inter, 'Segoe UI', Roboto, Helvetica, Arial, sans-serif">corp.internal → hub</text><path d="M100.0 430.0 L240.0 430.0 L240.0 410.0 L302.0 410.0" fill="none" stroke="#3c4043" stroke-width="2"  marker-end="url(#arr-3c4043)"/><path d="M430.0 290.0 L430.0 190.0 L890.0 190.0" fill="none" stroke="#8e44ad" stroke-width="2"  marker-end="url(#arr-8e44ad)"/><path d="M930.0 290.0 L930.0 222.0" fill="none" stroke="#8e44ad" stroke-width="2"  marker-end="url(#arr-8e44ad)"/><text x="945" y="262" text-anchor="start" font-size="11.5" font-weight="600" fill="#8e44ad" font-family="Inter, 'Segoe UI', Roboto, Helvetica, Arial, sans-serif">spoke · center</text><path d="M1430.0 290.0 L1430.0 190.0 L970.0 190.0" fill="none" stroke="#8e44ad" stroke-width="2"  marker-end="url(#arr-8e44ad)"/><path d="M560.0 430.0 L600.0 430.0 L600.0 470.0 L760.0 470.0 L760.0 430.0 L802.0 430.0" fill="none" stroke="#1e8e3e" stroke-width="2"  marker-end="url(#arr-1e8e3e)"/><path d="M1060.0 430.0 L1100.0 430.0 L1100.0 470.0 L1260.0 470.0 L1260.0 430.0 L1302.0 430.0" fill="none" stroke="#1e8e3e" stroke-width="2"  marker-end="url(#arr-1e8e3e)"/><text x="680" y="492" text-anchor="middle" font-size="11" font-weight="600" fill="#1e8e3e" font-family="Inter, 'Segoe UI', Roboto, Helvetica, Arial, sans-serif">learned routes via hub</text><text x="1180" y="492" text-anchor="middle" font-size="11" font-weight="600" fill="#1e8e3e" font-family="Inter, 'Segoe UI', Roboto, Helvetica, Arial, sans-serif">learned routes via hub</text><path d="M430.0 710.0 L430.0 775.0 L1430.0 775.0 L1430.0 710.0" fill="none" stroke="#d93025" stroke-width="2" stroke-dasharray="6 4" marker-end="url(#arr-d93025)"/><text x="930" y="758" text-anchor="middle" font-size="12" font-weight="700" fill="#d93025" font-family="Inter, 'Segoe UI', Roboto, Helvetica, Arial, sans-serif">prod ⇄ dev: no route between edge spokes (NCC) AND spoke firewalls admit only the hub CIDR</text><rect x="262.0" y="933.0" width="60" height="60" rx="12" fill="#000" opacity="0.10"/><rect x="260.0" y="930.0" width="60" height="60" rx="12" fill="#1E8E3E"/><path d="M278 971 v-24 M278 971 h25" fill="none" stroke="#fff" stroke-width="2.6" stroke-linecap="round" stroke-linejoin="round"/><path d="M284 965 v-6 M290 965 v-13 M296 965 v-9" fill="none" stroke="#fff" stroke-width="2.6" stroke-linecap="round" stroke-linejoin="round"/><text x="290" y="1005.0" text-anchor="middle" font-size="12.5" font-weight="600" fill="#202124" font-family="Inter, 'Segoe UI', Roboto, Helvetica, Arial, sans-serif">VPC Flow Logs</text><text x="290" y="1018.0" text-anchor="middle" font-size="10.5" fill="#5f6368" font-family="Inter, 'Segoe UI', Roboto, Helvetica, Arial, sans-serif">5 s, 50 % sample</text><text x="290" y="1030.0" text-anchor="middle" font-size="10.5" fill="#5f6368" font-family="Inter, 'Segoe UI', Roboto, Helvetica, Arial, sans-serif">all metadata</text><rect x="492.0" y="933.0" width="60" height="60" rx="12" fill="#000" opacity="0.10"/><rect x="490.0" y="930.0" width="60" height="60" rx="12" fill="#00897B"/><ellipse cx="520" cy="950" rx="11" ry="4" fill="none" stroke="#fff" stroke-width="2.6" stroke-linecap="round" stroke-linejoin="round"/><path d="M509 950 v20 q11 6 22 0 v-20 M509 960 q11 6 22 0" fill="none" stroke="#fff" stroke-width="2.6" stroke-linecap="round" stroke-linejoin="round"/><text x="520" y="1005.0" text-anchor="middle" font-size="12.5" font-weight="600" fill="#202124" font-family="Inter, 'Segoe UI', Roboto, Helvetica, Arial, sans-serif">BigQuery</text><text x="520" y="1018.0" text-anchor="middle" font-size="10.5" fill="#5f6368" font-family="Inter, 'Segoe UI', Roboto, Helvetica, Arial, sans-serif">lz_flow_logs</text><text x="520" y="1030.0" text-anchor="middle" font-size="10.5" fill="#5f6368" font-family="Inter, 'Segoe UI', Roboto, Helvetica, Arial, sans-serif">partitioned, 7-day TTL</text><rect x="742.0" y="933.0" width="60" height="60" rx="12" fill="#000" opacity="0.10"/><rect x="740.0" y="930.0" width="60" height="60" rx="12" fill="#1E8E3E"/><rect x="760" y="947" width="20" height="26" rx="2" fill="none" stroke="#fff" stroke-width="2.6" stroke-linecap="round" stroke-linejoin="round"/><path d="M765 954 h10 M765 960 h10 M765 966 h6" fill="none" stroke="#fff" stroke-width="2.6" stroke-linecap="round" stroke-linejoin="round"/><text x="770" y="1005.0" text-anchor="middle" font-size="12.5" font-weight="600" fill="#202124" font-family="Inter, 'Segoe UI', Roboto, Helvetica, Arial, sans-serif">Cloud Logging</text><text x="770" y="1018.0" text-anchor="middle" font-size="10.5" fill="#5f6368" font-family="Inter, 'Segoe UI', Roboto, Helvetica, Arial, sans-serif">firewall · DNS · NAT</text><rect x="972.0" y="933.0" width="60" height="60" rx="12" fill="#000" opacity="0.10"/><rect x="970.0" y="930.0" width="60" height="60" rx="12" fill="#1E8E3E"/><path d="M988 949 h24 l-9 11 v10 l-6 -3 v-7 z" fill="none" stroke="#fff" stroke-width="2.6" stroke-linecap="round" stroke-linejoin="round"/><text x="1000" y="1005.0" text-anchor="middle" font-size="12.5" font-weight="600" fill="#202124" font-family="Inter, 'Segoe UI', Roboto, Helvetica, Arial, sans-serif">Log-based metric</text><text x="1000" y="1018.0" text-anchor="middle" font-size="10.5" fill="#5f6368" font-family="Inter, 'Segoe UI', Roboto, Helvetica, Arial, sans-serif">denied ingress</text><text x="1000" y="1030.0" text-anchor="middle" font-size="10.5" fill="#5f6368" font-family="Inter, 'Segoe UI', Roboto, Helvetica, Arial, sans-serif">by VPC</text><rect x="1202.0" y="933.0" width="60" height="60" rx="12" fill="#000" opacity="0.10"/><rect x="1200.0" y="930.0" width="60" height="60" rx="12" fill="#1E8E3E"/><path d="M1233 947 l-11 15 h9 l-3 12 l11 -15 h-9 z" fill="none" stroke="#fff" stroke-width="2.6" stroke-linecap="round" stroke-linejoin="round"/><text x="1230" y="1005.0" text-anchor="middle" font-size="12.5" font-weight="600" fill="#202124" font-family="Inter, 'Segoe UI', Roboto, Helvetica, Arial, sans-serif">Alert policy</text><text x="1230" y="1018.0" text-anchor="middle" font-size="10.5" fill="#5f6368" font-family="Inter, 'Segoe UI', Roboto, Helvetica, Arial, sans-serif">&gt; 50 denies / 5 min</text><text x="1230" y="1030.0" text-anchor="middle" font-size="10.5" fill="#5f6368" font-family="Inter, 'Segoe UI', Roboto, Helvetica, Arial, sans-serif">→ email</text><rect x="1442.0" y="933.0" width="60" height="60" rx="12" fill="#000" opacity="0.10"/><rect x="1440.0" y="930.0" width="60" height="60" rx="12" fill="#1E8E3E"/><circle cx="1470" cy="960" r="12" fill="none" stroke="#fff" stroke-width="2.6" stroke-linecap="round" stroke-linejoin="round"/><path d="M1474 954 q-8 -4 -8 0 q0 3 4 3 q4 0 4 3 q0 4 -8 0" fill="none" stroke="#fff" stroke-width="2.6" stroke-linecap="round" stroke-linejoin="round"/><text x="1470" y="1005.0" text-anchor="middle" font-size="12.5" font-weight="600" fill="#202124" font-family="Inter, 'Segoe UI', Roboto, Helvetica, Arial, sans-serif">Budget</text><text x="1470" y="1018.0" text-anchor="middle" font-size="10.5" fill="#5f6368" font-family="Inter, 'Segoe UI', Roboto, Helvetica, Arial, sans-serif">€ alerts at 50 / 100 %</text><path d="M320.0 960.0 L490.0 960.0" fill="none" stroke="#3c4043" stroke-width="2"  marker-end="url(#arr-3c4043)"/><path d="M800.0 960.0 L970.0 960.0" fill="none" stroke="#3c4043" stroke-width="2"  marker-end="url(#arr-3c4043)"/><path d="M1030.0 960.0 L1200.0 960.0" fill="none" stroke="#3c4043" stroke-width="2"  marker-end="url(#arr-3c4043)"/><text x="220" y="1124" text-anchor="start" font-size="12.5" font-weight="400" fill="#3c4043" font-family="Inter, 'Segoe UI', Roboto, Helvetica, Arial, sans-serif">No external IPs anywhere · Shielded VMs (secure boot, vTPM, integrity) · OS Login, project SSH keys blocked · SSH only via IAP</text><text x="220" y="1148" text-anchor="start" font-size="12.5" font-weight="400" fill="#3c4043" font-family="Inter, 'Segoe UI', Roboto, Helvetica, Arial, sans-serif">Firewall policy per VPC: allow-list first, then an explicit logged deny-all (the implicit deny is silent) · non-overlapping CIDRs required by NCC</text><text x="220" y="1172" text-anchor="start" font-size="12.5" font-weight="400" fill="#3c4043" font-family="Inter, 'Segoe UI', Roboto, Helvetica, Arial, sans-serif">Least privilege: VM service accounts hold no roles · operator gets IAP tunnel + OS Login only · state in a versioned, private bucket</text><rect x="34" y="1250" width="1630" height="144" rx="10" fill="#fff" stroke="#dadce0" stroke-width="1.4"/><text x="50" y="1273" font-size="13" font-weight="700" fill="#202124" font-family="Inter, 'Segoe UI', Roboto, Helvetica, Arial, sans-serif">Numbered flows</text><circle cx="60.0" cy="1292.0" r="10.5" fill="#fff" stroke="#3c4043" stroke-width="2"/><text x="60.0" y="1296.2" text-anchor="middle" font-size="11.5" font-weight="700" fill="#3c4043" font-family="Inter, 'Segoe UI', Roboto, Helvetica, Arial, sans-serif">1</text><text x="80" y="1296" font-size="12" fill="#3c4043" font-family="Inter, 'Segoe UI', Roboto, Helvetica, Arial, sans-serif">Operator authenticates to IAP with their Google identity and is tunnelled to a private VM. Nothing is exposed to the internet</text><circle cx="60.0" cy="1314.0" r="10.5" fill="#fff" stroke="#3c4043" stroke-width="2"/><text x="60.0" y="1318.2" text-anchor="middle" font-size="11.5" font-weight="700" fill="#3c4043" font-family="Inter, 'Segoe UI', Roboto, Helvetica, Arial, sans-serif">2</text><text x="80" y="1318" font-size="12" fill="#3c4043" font-family="Inter, 'Segoe UI', Roboto, Helvetica, Arial, sans-serif">Each VPC is a spoke on the NCC hub. Hub = center group; prod and dev = edge group (edges reach the center, never each other)</text><circle cx="60.0" cy="1336.0" r="10.5" fill="#fff" stroke="#3c4043" stroke-width="2"/><text x="60.0" y="1340.2" text-anchor="middle" font-size="11.5" font-weight="700" fill="#3c4043" font-family="Inter, 'Segoe UI', Roboto, Helvetica, Arial, sans-serif">3</text><text x="80" y="1340" font-size="12" fill="#3c4043" font-family="Inter, 'Segoe UI', Roboto, Helvetica, Arial, sans-serif">Allowed path: prod↔hub and dev↔hub via routes NCC exports; proven by Connectivity Tests and live curl</text><circle cx="60.0" cy="1358.0" r="10.5" fill="#fff" stroke="#3c4043" stroke-width="2"/><text x="60.0" y="1362.2" text-anchor="middle" font-size="11.5" font-weight="700" fill="#3c4043" font-family="Inter, 'Segoe UI', Roboto, Helvetica, Arial, sans-serif">✗</text><text x="80" y="1362" font-size="12" fill="#3c4043" font-family="Inter, 'Segoe UI', Roboto, Helvetica, Arial, sans-serif">Blocked path: no route between edge spokes; Connectivity Test says UNREACHABLE and live curl times out</text><circle cx="60.0" cy="1380.0" r="10.5" fill="#fff" stroke="#3c4043" stroke-width="2"/><text x="60.0" y="1384.2" text-anchor="middle" font-size="11.5" font-weight="700" fill="#3c4043" font-family="Inter, 'Segoe UI', Roboto, Helvetica, Arial, sans-serif">7</text><text x="80" y="1384" font-size="12" fill="#3c4043" font-family="Inter, 'Segoe UI', Roboto, Helvetica, Arial, sans-serif">Flow logs are sunk to BigQuery; firewall denials feed a log-based metric and an alert policy</text><text x="34" y="1470" font-size="12" font-weight="700" fill="#202124" font-family="Inter, 'Segoe UI', Roboto, Helvetica, Arial, sans-serif">Service categories</text><rect x="34" y="1479" width="14" height="14" rx="3" fill="#4285F4"/><text x="56" y="1490" font-size="11.5" fill="#3c4043" font-family="Inter, 'Segoe UI', Roboto, Helvetica, Arial, sans-serif">Compute / containers</text><rect x="192" y="1479" width="14" height="14" rx="3" fill="#8E44AD"/><text x="214" y="1490" font-size="11.5" fill="#3c4043" font-family="Inter, 'Segoe UI', Roboto, Helvetica, Arial, sans-serif">Networking</text><rect x="350" y="1479" width="14" height="14" rx="3" fill="#00897B"/><text x="372" y="1490" font-size="11.5" fill="#3c4043" font-family="Inter, 'Segoe UI', Roboto, Helvetica, Arial, sans-serif">Data</text><rect x="508" y="1479" width="14" height="14" rx="3" fill="#F29900"/><text x="530" y="1490" font-size="11.5" fill="#3c4043" font-family="Inter, 'Segoe UI', Roboto, Helvetica, Arial, sans-serif">AI / ML</text><rect x="34" y="1501" width="14" height="14" rx="3" fill="#D93025"/><text x="56" y="1512" font-size="11.5" fill="#3c4043" font-family="Inter, 'Segoe UI', Roboto, Helvetica, Arial, sans-serif">Security</text><rect x="192" y="1501" width="14" height="14" rx="3" fill="#1E8E3E"/><text x="214" y="1512" font-size="11.5" fill="#3c4043" font-family="Inter, 'Segoe UI', Roboto, Helvetica, Arial, sans-serif">Operations</text><rect x="350" y="1501" width="14" height="14" rx="3" fill="#5F6368"/><text x="372" y="1512" font-size="11.5" fill="#3c4043" font-family="Inter, 'Segoe UI', Roboto, Helvetica, Arial, sans-serif">Developer tooling</text><circle cx="70.0" cy="340.0" r="10.5" fill="#fff" stroke="#3c4043" stroke-width="2"/><text x="70.0" y="344.2" text-anchor="middle" font-size="11.5" font-weight="700" fill="#3c4043" font-family="Inter, 'Segoe UI', Roboto, Helvetica, Arial, sans-serif">1</text><circle cx="560.0" cy="190.0" r="10.5" fill="#fff" stroke="#8e44ad" stroke-width="2"/><text x="560.0" y="194.2" text-anchor="middle" font-size="11.5" font-weight="700" fill="#8e44ad" font-family="Inter, 'Segoe UI', Roboto, Helvetica, Arial, sans-serif">2</text><text x="560" y="172" text-anchor="middle" font-size="10.5" fill="#3c4043" font-family="Inter, 'Segoe UI', Roboto, Helvetica, Arial, sans-serif" paint-order="stroke" stroke="#fff" stroke-width="4">spoke · edge</text><circle cx="930.0" cy="256.0" r="10.5" fill="#fff" stroke="#8e44ad" stroke-width="2"/><text x="930.0" y="260.2" text-anchor="middle" font-size="11.5" font-weight="700" fill="#8e44ad" font-family="Inter, 'Segoe UI', Roboto, Helvetica, Arial, sans-serif">2</text><circle cx="1300.0" cy="190.0" r="10.5" fill="#fff" stroke="#8e44ad" stroke-width="2"/><text x="1300.0" y="194.2" text-anchor="middle" font-size="11.5" font-weight="700" fill="#8e44ad" font-family="Inter, 'Segoe UI', Roboto, Helvetica, Arial, sans-serif">2</text><text x="1300" y="172" text-anchor="middle" font-size="10.5" fill="#3c4043" font-family="Inter, 'Segoe UI', Roboto, Helvetica, Arial, sans-serif" paint-order="stroke" stroke="#fff" stroke-width="4">spoke · edge</text><circle cx="680.0" cy="470.0" r="10.5" fill="#fff" stroke="#1e8e3e" stroke-width="2"/><text x="680.0" y="474.2" text-anchor="middle" font-size="11.5" font-weight="700" fill="#1e8e3e" font-family="Inter, 'Segoe UI', Roboto, Helvetica, Arial, sans-serif">3</text><circle cx="1180.0" cy="470.0" r="10.5" fill="#fff" stroke="#1e8e3e" stroke-width="2"/><text x="1180.0" y="474.2" text-anchor="middle" font-size="11.5" font-weight="700" fill="#1e8e3e" font-family="Inter, 'Segoe UI', Roboto, Helvetica, Arial, sans-serif">3</text><circle cx="930.0" cy="775.0" r="10.5" fill="#fff" stroke="#d93025" stroke-width="2"/><text x="930.0" y="779.2" text-anchor="middle" font-size="11.5" font-weight="700" fill="#d93025" font-family="Inter, 'Segoe UI', Roboto, Helvetica, Arial, sans-serif">✗</text><circle cx="405.0" cy="960.0" r="10.5" fill="#fff" stroke="#3c4043" stroke-width="2"/><text x="405.0" y="964.2" text-anchor="middle" font-size="11.5" font-weight="700" fill="#3c4043" font-family="Inter, 'Segoe UI', Roboto, Helvetica, Arial, sans-serif">7</text><text x="405.0" y="942.0" text-anchor="middle" font-size="10.5" fill="#3c4043" font-family="Inter, 'Segoe UI', Roboto, Helvetica, Arial, sans-serif" paint-order="stroke" stroke="#fff" stroke-width="4">log sink</text></svg>